# 3ds Max Wavefront OBJ Exporter v0.97b - (c)2007 guruware
# File Created: 12.05.2014 08:45:39

mtllib needle.mtl

#
# object needle
#

v  -34.2524 2.0317 0.5501
v  -34.2180 2.6483 0.8765
v  -34.2171 2.8648 1.2616
v  -34.3485 0.0204 0.2554
v  -34.2180 2.6483 1.6466
v  -34.2524 2.0317 1.9730
v  -34.3485 0.0204 2.2677
v  -34.2888 1.1089 2.1911
v  -34.2911 -1.0682 2.1911
v  -34.2566 -1.9910 1.9730
v  -34.2230 -2.8241 1.2616
v  -34.2235 -2.6076 1.6466
v  -34.2235 -2.6076 0.8765
v  -34.2566 -1.9910 0.5501
v  -34.2911 -1.0682 0.3320
v  -34.2888 1.1089 0.3320
v  -48.8275 -0.0323 0.5171
v  -48.8274 0.0538 0.4557
v  -48.8276 -0.1053 0.6918
v  -48.8277 -0.1541 0.9532
v  -48.8277 -0.1713 1.2616
v  -48.8277 -0.1541 1.5699
v  -48.8276 -0.1053 1.8313
v  -48.8275 -0.0323 2.0060
v  -48.8274 0.0538 2.0674
v  -48.8272 0.1399 2.0060
v  -48.8271 0.2129 1.8313
v  -48.8270 0.2617 1.5699
v  -48.8270 0.2788 1.2616
v  -48.8270 0.2617 0.9532
v  -48.8271 0.2129 0.6918
v  -48.8272 0.1399 0.5171
# 32 vertices

vn 0.9986 -0.0514 0.0127
vn 0.9962 -0.0772 0.0410
vn 0.9983 -0.0574 0.0000
vn 1.0000 -0.0010 0.0056
vn 0.9962 -0.0772 -0.0410
vn 0.9986 -0.0514 -0.0127
vn 1.0000 -0.0010 -0.0056
vn 0.9939 -0.0609 -0.0919
vn 0.9940 0.0589 -0.0919
vn 0.9987 0.0493 -0.0127
vn 0.9985 0.0554 0.0000
vn 0.9963 0.0751 -0.0410
vn 0.9963 0.0751 0.0410
vn 0.9987 0.0493 0.0127
vn 0.9940 0.0589 0.0919
vn 0.9939 -0.0609 0.0919
vn -0.0157 -0.0013 -0.9999
vn -0.0297 -0.1608 -0.9865
vn -0.0429 -0.7690 -0.6378
vn -0.0367 -0.0123 -0.9993
vn -0.0647 -0.3697 -0.9269
vn -0.0994 -0.9480 -0.3025
vn -0.1286 -0.7131 -0.6891
vn -0.1471 -0.9805 -0.1306
vn -0.1737 -0.9848 -0.0027
vn -0.1724 -0.9850 -0.0042
vn -0.1171 -0.7150 0.6892
vn -0.1713 -0.9776 0.1227
vn -0.0520 -0.3684 0.9282
vn -0.1428 -0.9444 0.2962
vn -0.0221 -0.1584 0.9871
vn -0.0883 -0.7638 0.6394
vn -0.0157 0.0012 0.9999
vn -0.0366 0.0130 0.9992
vn -0.0289 0.1607 0.9866
vn -0.0394 0.7692 0.6377
vn -0.0630 0.3696 0.9271
vn -0.0951 0.9484 0.3025
vn -0.1253 0.7133 0.6895
vn -0.1427 0.9811 0.1306
vn -0.1693 0.9856 0.0027
vn -0.1680 0.9858 0.0042
vn -0.1138 0.7152 -0.6896
vn -0.1669 0.9783 -0.1227
vn -0.0502 0.3683 -0.9284
vn -0.1386 0.9450 -0.2962
vn -0.0214 0.1583 -0.9872
vn -0.0849 0.7643 -0.6393
vn -1.0000 0.0016 0.0000
vn -1.0000 0.0015 -0.0000
vn -1.0000 0.0015 0.0000
vn -1.0000 0.0016 -0.0000
vn -1.0000 0.0017 0.0000
vn -1.0000 0.0017 -0.0000
# 54 vertex normals

vt 0.9109 0.9193 0.0000
vt 0.9157 0.9333 0.0000
vt 0.9147 0.9481 0.0000
vt 0.8879 0.9017 0.0000
vt 0.9082 0.9613 0.0000
vt 0.8971 0.9711 0.0000
vt 0.8683 0.9749 0.0000
vt 0.8831 0.9758 0.0000
vt 0.8551 0.9683 0.0000
vt 0.8453 0.9572 0.0000
vt 0.8415 0.9285 0.0000
vt 0.8406 0.9432 0.0000
vt 0.8481 0.9152 0.0000
vt 0.8592 0.9055 0.0000
vt 0.8732 0.9007 0.0000
vt 0.9012 0.9082 0.0000
vt 0.9226 0.2461 0.0000
vt 0.9244 0.2462 0.0000
vt 0.8585 0.8995 0.0000
vt 0.9209 0.2457 0.0000
vt 0.8438 0.8979 0.0000
vt 0.9191 0.2458 0.0000
vt 0.8291 0.8961 0.0000
vt 0.9173 0.2455 0.0000
vt 0.8145 0.8940 0.0000
vt 0.9156 0.2453 0.0000
vt 0.7999 0.8915 0.0000
vt 0.9138 0.2450 0.0000
vt 0.7854 0.8888 0.0000
vt 0.9121 0.2447 0.0000
vt 0.7709 0.8858 0.0000
vt 0.9103 0.2443 0.0000
vt 0.7565 0.8825 0.0000
vt 0.9086 0.2439 0.0000
vt 0.7421 0.8790 0.0000
vt 0.9069 0.2435 0.0000
vt 0.7279 0.8751 0.0000
vt 0.9052 0.2430 0.0000
vt 0.7137 0.8710 0.0000
vt 0.9035 0.2425 0.0000
vt 0.6996 0.8666 0.0000
vt 0.9018 0.2420 0.0000
vt 0.9322 0.9028 0.0000
vt 0.9175 0.9028 0.0000
vt 0.9279 0.2463 0.0000
vt 0.9297 0.2464 0.0000
vt 0.9027 0.9024 0.0000
vt 0.9261 0.2461 0.0000
vt 0.9274 0.2445 0.0000
vt 0.9198 0.2440 0.0000
vt 0.9193 0.2423 0.0000
vt 0.9202 0.2389 0.0000
vt 0.9194 0.2405 0.0000
vt 0.9215 0.2378 0.0000
vt 0.9232 0.2372 0.0000
vt 0.9265 0.2381 0.0000
vt 0.9250 0.2373 0.0000
vt 0.9277 0.2394 0.0000
vt 0.9283 0.2411 0.0000
vt 0.9282 0.2429 0.0000
# 60 texture coords

g needle
usemtl speed_gauge
s 1
f 1/1/1 2/2/2 3/3/3 4/4/4 
f 3/3/3 5/5/5 6/6/6 7/7/7 
f 6/6/6 8/8/8 7/7/7 
f 7/7/7 9/9/9 10/10/10 11/11/11 
f 10/10/10 12/12/12 11/11/11 
f 11/11/11 13/13/13 14/14/14 4/4/4 
f 14/14/14 15/15/15 4/4/4 
f 7/7/7 11/11/11 4/4/4 3/3/3 
f 16/16/16 1/1/1 4/4/4 
s 8
f 4/4/17 15/15/18 17/17/19 18/18/20 
f 15/15/18 14/19/21 19/20/22 17/17/19 
f 14/19/21 13/21/23 20/22/24 19/20/22 
f 13/21/23 11/23/25 21/24/26 20/22/24 
f 11/23/25 12/25/27 22/26/28 21/24/26 
f 12/25/27 10/27/29 23/28/30 22/26/28 
f 10/27/29 9/29/31 24/30/32 23/28/30 
f 9/29/31 7/31/33 25/32/34 24/30/32 
f 7/31/33 8/33/35 26/34/36 25/32/34 
f 8/33/35 6/35/37 27/36/38 26/34/36 
f 6/35/37 5/37/39 28/38/40 27/36/38 
f 5/37/39 3/39/41 29/40/42 28/38/40 
f 3/39/41 2/41/43 30/42/44 29/40/42 
f 2/43/43 1/44/45 31/45/46 30/46/44 
f 1/44/45 16/47/47 32/48/48 31/45/46 
f 16/47/47 4/4/17 18/18/20 32/48/48 
s 1
f 18/18/49 17/17/50 19/20/49 31/49/49 
f 19/20/49 20/50/51 21/51/50 23/52/52 
f 21/51/50 22/53/50 23/52/52 
f 23/52/52 24/54/51 25/55/52 27/56/52 
f 25/55/52 26/57/53 27/56/52 
f 27/56/52 28/58/53 29/59/51 31/49/49 
f 29/59/51 30/60/54 31/49/49 
f 23/52/52 27/56/52 31/49/49 19/20/49 
f 32/48/54 18/18/49 31/49/49 
# 26 polygons - 8 triangles

